<svg width="399" height="142" viewBox="0 0 399 142" fill="none" xmlns="http://www.w3.org/2000/svg">
<path d="M168.199 0L140.595 104.787C134.357 128.342 127.389 142 104.901 142C84.7762 142 78.5389 128.857 84.9954 104.205L112.43 0H133.626L105.315 107.631C103.293 115.4 104.316 119.789 109.019 119.789C114.525 119.789 116.498 114.796 118.399 107.631L146.71 0H168.199Z" fill="#BE9100"/>
<path d="M328.831 0L301.357 104.793C295.12 128.344 288.178 142 265.801 142C245.754 142 239.54 128.859 245.948 104.211L273.276 0H294.391L266.189 107.636C264.199 115.404 265.218 119.77 269.878 119.77C275.388 119.77 277.329 114.8 279.222 107.636L307.425 0H328.831Z" fill="#202020"/>
<path d="M57.1932 0C76.9181 0 84.7401 14.3294 77.574 41.0688L60.594 104.703C53.8652 130.059 45.193 142 24.5693 142C4.2371 142 -1.6658 127.179 5.06302 101.645L22.8446 34.4398C29.4763 9.30746 41.1363 0 57.1932 0ZM57.8491 34.596C59.9139 26.6501 59.3552 21.4495 53.6466 21.4495C49.517 21.4495 46.5534 25.2439 44.27 34.1273L25.0309 106.712C23.0632 114.033 22.7717 120.684 28.7718 120.684C33.8974 120.684 36.3751 115.372 38.5857 107.248L57.8491 34.596Z" fill="#BE9100"/>
<path d="M222.202 0.19884L215.424 21.4683C215.179 21.449 214.914 21.4234 214.621 21.4234C214.196 21.4231 213.772 21.4683 213.357 21.5581C211.71 21.8916 210.251 22.9628 208.967 24.8614C207.556 26.9139 206.342 29.9543 205.274 34.1042L186.035 106.687C185.015 110.504 184.429 114.14 184.987 116.751L177.267 140.952C163.71 137.219 160.331 123.274 166.041 101.62L183.822 34.4185C184.66 31.1856 185.683 27.9955 186.886 24.8614H169.462L177.895 0H219.556C219.919 0.0192426 220.282 0.0192425 220.645 0.0448993C221.183 0.0897986 221.693 0.134698 222.202 0.19884Z" fill="#BE9100"/>
<path d="M222.125 0.343826C238.902 2.21706 245.175 16.3333 238.489 41.1538L221.493 104.733C214.757 130.066 206.077 141.997 185.434 141.997C182.629 142.037 179.835 141.691 177.142 140.971L184.874 116.797C185.361 119.183 186.795 120.7 189.64 120.7C194.771 120.7 197.275 115.392 199.463 107.275L218.745 34.6867C220.714 27.1491 220.325 22.0645 215.341 21.5962L222.125 0.343826Z" fill="#202020"/>
<path d="M324.359 142L355.335 23.7797H339.307L345.517 0.343826H399L392.79 23.7797H376.591L345.615 142H324.359Z" fill="#202020"/>
</svg>
