<svg fill="none" height="100" viewBox="0 0 266 100" width="266" xmlns="http://www.w3.org/2000/svg">
    <g clip-path="url(#clip0)">
        <path d="M110.42 0.0170898L92.0714 73.5788C87.9256 90.1145 83.294 99.7027 68.3464 99.7027C54.9698 99.7027 50.824 90.476 55.1155 73.1702L73.3506 0.0170898H87.4398L68.6218 75.5751C67.2776 81.0293 67.9578 84.1101 71.0833 84.1101C74.7433 84.1101 76.0551 80.6049 77.3182 75.5751L96.1363 0.0170898H110.42Z"
              fill="#BE9100" />
        <path d="M217.708 0L199.376 73.5775C195.214 90.1132 190.582 99.7013 175.651 99.7013C162.274 99.7013 158.128 90.4747 162.403 73.1688L180.639 0H194.728L175.91 75.5737C174.582 81.028 175.262 84.093 178.371 84.093C182.047 84.093 183.343 80.6036 184.606 75.5737L203.424 0H217.708Z"
              fill="#414141" />
        <path d="M36.5236 0C49.6736 0 54.8882 10.0912 50.1108 28.9217L38.7909 73.7347C34.305 91.5907 28.5235 100 14.7744 100C1.21956 100 -2.71571 89.563 1.77017 71.5813L13.6246 24.2534C18.0457 6.55455 25.819 0 36.5236 0ZM36.9609 24.3634C38.3374 18.7677 37.9649 15.1053 34.1592 15.1053C31.4062 15.1053 29.4304 17.7774 27.9081 24.0333L15.0821 75.1493C13.7703 80.3049 13.576 84.989 17.576 84.989C20.9931 84.989 22.6449 81.248 24.1186 75.5266L36.9609 24.3634Z"
              fill="#BE9100" />
        <path d="M146.501 0.160536L141.982 15.139C141.819 15.1255 141.642 15.1074 141.447 15.1074C141.163 15.1072 140.881 15.139 140.604 15.2023C139.506 15.4371 138.533 16.1915 137.677 17.5285C136.737 18.974 135.927 21.1151 135.215 24.0376L122.389 75.1523C121.71 77.84 121.319 80.4011 121.691 82.2396L116.544 99.2823C107.506 96.6534 105.254 86.8334 109.06 71.5839L120.914 24.2589C121.473 21.9822 122.155 19.7357 122.957 17.5285H111.341L116.963 0.0205078H144.737C144.979 0.0340589 145.221 0.0340589 145.463 0.052127C145.821 0.0837463 146.161 0.115366 146.501 0.160536Z"
              fill="#BE9100" />
        <path d="M146.501 0.157715C157.675 1.47804 161.854 11.4278 157.4 28.9223L146.08 73.7352C141.594 91.5913 135.813 100.001 122.064 100.001C120.196 100.029 118.334 99.7852 116.541 99.2775L121.691 82.2389C122.015 83.9207 122.97 84.9896 124.865 84.9896C128.282 84.9896 129.95 81.2486 131.408 75.5271L144.25 24.3639C145.562 19.0511 145.303 15.4674 141.983 15.1373L146.501 0.157715Z"
              fill="#414141" />
        <path d="M216.753 98.54L237.19 16.3173H226.615L230.712 0.0175781H266L261.903 16.3173H251.215L230.777 98.54H216.753Z"
              fill="#414141" />
    </g>
    <defs>
        <clipPath id="clip0">
            <rect fill="white" height="100" width="266"/>
        </clipPath>
    </defs>
</svg>